<svg height="960" viewBox="0 0 960 960" width="960" xmlns="http://www.w3.org/2000/svg"><g fill="none" fill-rule="evenodd" stroke="#000" stroke-linejoin="round"><path d="m381.382328 56.1995281c29.447775-22.6173599 68.190791-36.6614249 119.201961-33.8453318 60.527029 3.3414201 101.422509 30.5523282 128.999832 65.5454487 43.672003 55.41581 52.64231 131.593288 52.64231 160.932242 0 23.313658 4.802096 116.969933 9.829961 213.143303l.309554 5.918558.563716 10.767093.242444 4.627565.242316 4.623853.418443 7.983108c3.731268 71.182082 7.30613 139.392416 8.890017 177.172771 2.438079 58.155365-11.209445 132.012062-51.902608 186.521367-31.720216 42.489863-79.474402 73.816969-148.777436 77.908586-63.192173 3.730834-112.580301-13.480537-149.113245-42.969403-32.717905-20.269759-56.995977-49.276618-72.963443-83.267156-16.8749-35.922226-24.417799-77.460777-22.735616-119.798778 4.50482-113.379488 18.001376-370.024955 22.493186-441.799704 3.642971-58.211128 27.850457-151.5261335 101.658608-193.4635219z" stroke-width="40"/><g stroke-linecap="round" stroke-width="20"><path d="m376.218515 83.700601c28.650457-32.7575744 70.199046-55.1037661 130.01293-51.6935613 55.363517 3.1564733 92.843302 28.7610157 118.086185 61.8410742 40.606857 53.2140961 48.84188 126.3782711 48.84188 154.5382741 0 23.752421 4.803002 120.353237 9.77139 218.403125l.655736 12.931991c.273295 5.386776.546474 10.768452.818767 16.133184 3.608765 71.099995 7.066573 139.231653 8.598458 176.96844 2.275251 56.049026-10.285096 127.315055-48.288275 179.88843-29.230245 40.436949-73.294594 70.102004-137.107076 73.992859-68.868141 4.199114-120.147284-19.019514-154.985026-57.066093-39.708045-43.365475-58.038348-106.535388-55.603037-171.695652 4.357135-116.581446 17.41117-380.474856 21.755722-454.276601 2.6758-45.454318 16.880594-113.589084 57.442346-159.96547z"/><path d="m501.359898 447.351052c7.940992-.039343 14.378439-6.592933 14.378439-14.637853 0-8.044921-6.437447-14.569434-14.378439-14.573005-7.940992-.003377-14.378439 6.550213-14.378439 14.63795s6.437447 14.61225 14.378439 14.572908z"/><path d="m465.449873 486.46736c10.154606 7.116939 22.497533 11.187294 35.809014 10.998391 13.066961-.185433 25.200594-4.410549 35.247197-11.465751l44.493916 44.051433c-21.643626 18.531501-49.43322 30.122825-79.741113 30.907124-30.550129.790567-58.541525-9.771516-80.258887-28.075081zm132.733027-132.46736c17.991799 21.666341 28.8171 49.296066 28.8171 79.342752 0 29.669246-10.554993 57.031714-28.142474 78.657248l-44.254587-43.667089c6.615787-10.008382 10.473975-21.985324 10.473975-34.839975 0-13.240366-4.093087-25.530303-11.076914-35.683009zm-192.0349-3 43.852 45.914789c-6.692717 10.226745-10.60288 22.597452-10.60288 35.926171 0 12.931684 3.680785 24.944767 10.012253 34.960679l-43.926521 46.198361c-17.185679-21.912218-27.482852-50.133266-27.482852-81.01503 0-31.278143 10.563253-59.874954 28.148-81.98497zm95.112509-43.972944c29.857348.620437 57.265207 11.618869 78.739491 29.3488l-44.469407 43.624144c-9.84548-6.527778-21.619363-10.391783-34.270084-10.509067-12.895726-.119557-24.88035 3.706565-34.839946 10.381156l-44.420563-45.525684c21.551158-17.692953 49.161143-27.944815 79.260509-27.319349z"/><path d="m501.359898 271.937809c19.949154.547086 36.121138-15.327122 36.121138-35.456036 0-20.128913-16.171984-37.109175-36.121138-37.926475-19.949154-.817301-36.121138 15.056908-36.121138 35.456036s16.171984 37.37939 36.121138 37.926475z"/><path d="m501.359898 173.484084c19.949154.90962 36.121138-14.670696 36.121138-34.79961 0-20.128913-16.171984-37.403067-36.121138-38.582901-19.949154-1.1798343-36.121138 14.400482-36.121138 34.79961 0 20.399129 16.171984 37.673282 36.121138 38.582901z"/><path d="m501.59546 123.202893-.471124 23.565745"/><path d="m378.581013 558.43875c16.676085-.415302 30.194722 13.209641 30.194722 30.432161v87.612564c0 17.222521-13.518637 31.888896-30.194721 32.758265-16.676084.86937-30.194721-12.540547-30.194721-29.951888v-88.57311c0-17.411341 13.518637-31.86269 30.19472-32.277992z"/><path d="m460.620988 594.704973c16.676085-.532191 30.194722 12.795118 30.194722 29.767377v86.33946c0 16.972259-13.518637 31.530513-30.194721 32.516771-16.676085.986259-30.194721-12.126024-30.194721-29.287103v-87.300006c0-17.161079 13.518636-31.504308 30.19472-32.036499z"/><path d="m542.660963 592.150625c16.676085-.532191 30.194722 12.59224 30.194722 29.314238v85.066355c0 16.721997-13.518637 31.077375-30.194721 32.063633-16.676085.986258-30.194721-11.923148-30.194721-28.833965v-86.026901c0-16.910818 13.518636-31.05117 30.19472-31.58336z"/><path d="m624.700938 552.458791c16.676085-.415302 30.194722 12.601009 30.194722 29.072745v83.793251c0 16.471736-13.518637 30.529479-30.194721 31.398849-16.676085.86937-30.194722-11.931916-30.194722-28.592472v-84.753797c0-16.660556 13.518637-30.503274 30.194721-30.918576z"/></g></g></svg>