<svg height="960" viewBox="0 0 960 960" width="960" xmlns="http://www.w3.org/2000/svg"><g fill="none" fill-rule="evenodd" stroke="#000" stroke-linejoin="round"><path d="m286.049505 42c1.089269 0 2.178512.0107782 3.267568.032333l472.90099 9.3597344c44.931037.8892825 85.375799 19.6642276 114.587953 49.4457976 29.213895 29.783345 47.193984 70.5745 47.193984 115.494522v528.334606c0 44.920022-17.980089 85.711177-47.193984 115.494522-29.212154 29.78157-69.656916 48.556515-114.587953 49.445797l-472.90099 9.359735c-45.567608.901882-87.186869-16.742752-117.639942-45.998673-30.454902-29.257678-49.742401-70.127881-50.644779-115.675403-.021568-1.088615-.032352-2.177416-.032352-3.266243v-547.054076c0-45.556507 18.474202-86.800407 48.343634-116.6550336 29.867637-29.8528326 71.129276-48.3176184 116.705871-48.3176184z" stroke-linecap="round" stroke-width="20"/><path d="m288.049505 82c.840901 0 1.681754.0014086 2.522481.0254199l472.854546 9.3588152c34.043901.6738025 64.689435 14.8980409 86.823539 37.4635929 22.128883 22.560228 35.749929 53.458215 35.749929 87.484559v528.334606c0 34.026343-13.621046 64.924331-35.749929 87.484559-22.134104 22.565552-52.779638 36.78979-86.823539 37.463593l-472.90099 9.359734c-34.526561.683356-66.062238-12.6846-89.136803-34.852072-23.069079-22.162202-37.680689-53.120207-38.364235-87.622153-.016336-.824541-.024504-1.649223-.024504-2.473926v-547.054076c0-34.508544 13.995422-65.749496 36.620893-88.363752 22.630855-22.6196377 53.895443-36.6089 88.428612-36.6089z" stroke-linecap="round" stroke-width="20"/><path d="m266.888087 32.0013532c1.089166 0 2.178305.0107844 3.267291.0323522l9.99652.1980023 170.165172 3.3695677 311.950188 6.178925c44.91797.8896204 85.351155 19.668143 114.554848 49.4559553s47.177894 70.5849143 47.177894 115.5116933v547.503722c0 44.926779-17.974201 85.723881-47.177894 115.511693s-69.636878 48.566335-114.554857 49.455956l-9.641669.190953-157.121511 3.111258-325.348725 6.444284c-17.388833.344394-34.201653-2.018701-50.038329-6.694748l-48.367886-5.684256c-41.554228-4.881551-77.9915099-24.929848-104.0402352-54.21775-26.0487254-29.287903-41.7088938-67.815411-41.7088938-109.655384v-545.177169c0-41.67844 15.5428705-80.083896 41.4278125-109.338532 25.884942-29.2546357 62.1119555-49.3584508 103.4789885-54.4334544l55.941955-6.8666723c12.818687-3.1967068 26.230604-4.8963961 40.039331-4.8963961z" stroke-width="40"/><path d="m525.522901 642.593581c78.703708 12.59283 153.904204-49.901625 167.965007-139.585273s-38.342626-172.595116-117.046334-185.187946c-78.703709-12.592831-153.904204 49.901624-167.965007 139.585272-14.060804 89.683648 38.342625 172.595116 117.046334 185.187947z" stroke-linecap="round" stroke-width="20"/></g></svg>