<?xml version="1.0" encoding="UTF-8"?>
<svg width="960px" height="960px" viewBox="0 0 960 960" version="1.1" xmlns="http://www.w3.org/2000/svg" xmlns:xlink="http://www.w3.org/1999/xlink">
        <style type="text/css">
#button {
	animation: press 10s infinite;
}

@keyframes press {
	0%, 5%, 95%, 100% {
		fill: rgba(255,255,255,0);
	}
	8%, 90% {
		fill: #0078CC;
	}
}
#led {
	animation: blink 10s infinite;
}

@keyframes blink {
	0%, 8%, 20%, 30%, 40%, 50%, 60%, 70%, 80%, 100% {
		fill: rgba(255,255,255,0);
	}
	15%, 25%, 35%, 45%, 55%, 65%, 75% {
		fill: #0078CC;
	}
}
</style>
    <title>com.eglo/drivers/sensor/ assets/pair</title>
    <g id="com.eglo/drivers/sensor" stroke="none" stroke-width="1" fill="none" fill-rule="evenodd">
        <path d="M289.11919,52.0303749 L762.02018,61.3901093 C846.438686,63.0609343 914,131.939183 914,216.332387 L914,744.666993 C914,829.060197 846.438686,897.938446 762.02018,899.609271 L289.11919,908.969005 C203.504497,910.663505 132.72573,842.667148 131.03039,757.094892 C131.01013,756.072296 131,755.049524 131,754.026728 L131,206.972652 C131,121.38362 200.418028,52 286.049505,52 C287.072809,52 288.096087,52.0101255 289.11919,52.0303749 Z" id="Rectangle" stroke="#000000" stroke-width="10" stroke-linecap="round" stroke-linejoin="round"></path>
        <path d="M288.049505,92 C288.808945,92 289.568367,92 290.327659,92.0225426 L763.228649,101.382277 C794.550766,102.00221 822.746493,115.088771 843.111085,135.850318 C863.468714,156.604768 876,185.029463 876,216.332387 L876,744.666993 C876,775.969917 863.468714,804.394612 843.111085,825.149061 C822.746493,845.910609 794.550766,858.99717 763.228649,859.617103 L290.327659,868.976837 C258.561361,869.605561 229.546579,857.306775 208.316641,836.911415 C187.094018,816.523082 173.65138,788.043127 173.022542,756.302575 C173.007514,755.544052 173,754.785399 173,754.026728 L173,206.972652 C173,175.226098 185.875727,146.485884 206.690207,125.681721 C227.511867,104.870381 256.277192,92 288.049505,92 Z" id="Rectangle" stroke="#000000" stroke-width="10" stroke-linecap="round" stroke-linejoin="round"></path>
        <path d="M266.888087,52.0013532 C267.845233,52.0013532 268.802355,52.0108304 269.759313,52.0297833 L279.75594,52.2277877 C279.779939,52.2282519 279.803938,52.2287216 279.827937,52.2291969 L449.921,55.5973532 L761.871227,61.776279 C840.817962,63.3398542 904,127.785631 904,206.747849 L904,754.251571 C904,833.213789 840.817962,897.659566 761.871227,899.223141 L752.229625,899.414093 C752.21727,899.41434 752.204914,899.414587 752.192558,899.414831 L595.108,902.525353 L269.759313,908.969637 C253.897007,909.283797 238.579261,907.038605 224.200569,902.613233 L174.082568,896.723301 C101.047865,888.143605 46,826.2505 46,752.713577 L46,207.536408 C46,134.283393 100.635545,72.5354097 173.343442,63.6154364 L230.540027,56.5947627 C242.155767,53.5963624 254.33566,52.0013532 266.888087,52.0013532 Z" id="Combined-Shape" stroke="#000000" stroke-width="20" stroke-linecap="round" stroke-linejoin="round"></path>
        <ellipse id="led" fill="#0074CC" cx="92" cy="647" rx="16" ry="36"></ellipse>
        <path d="M525.522901,642.593581 C604.226609,655.186411 679.427105,592.691956 693.487908,503.008308 C707.548711,413.32466 655.145282,330.413192 576.441574,317.820362 C497.737865,305.227531 422.53737,367.721986 408.476567,457.405634 C394.415763,547.089282 446.819192,630.00075 525.522901,642.593581 Z" id="Oval" stroke="#000000" stroke-width="10" stroke-linecap="round" stroke-linejoin="round"></path>
        <ellipse id="oval" stroke="#000000" stroke-width="10" stroke-linecap="round" stroke-linejoin="round" cx="92" cy="647" rx="16" ry="36"></ellipse>
        <ellipse id="button" fill="#0074CC" cx="99" cy="316" rx="12.8888889" ry="29"></ellipse>
        <ellipse id="oval" stroke="#000000" stroke-width="10" stroke-linecap="round" stroke-linejoin="round" cx="99" cy="316" rx="12.8888889" ry="29"></ellipse>
    </g>
</svg>