<svg height="960" viewBox="0 0 960 960" width="960" xmlns="http://www.w3.org/2000/svg"><g fill="none" fill-rule="evenodd" stroke="#000"><path d="m480 27c130.339201 0 236 104.477016 236 233.355946 0 15.474139-1.523221 30.596497-4.429491 45.22847-.874379 4.402166-7.778323 29.159451-9.12717 32.913432-3.398863 9.45939-7.397463 18.638025-11.950508 27.491031-40.418475 101.051381-63.178978 167.290659-68.288368 198.715475-7.828996 48.151498-8.780426 100.198053-8.892423 115.484723l-.019047 4.725562c-.065336 7.069221-1.778818 9.0029-9.499597 16.370029l-.391776.367174c-8.480878 7.80753-4.152035 12.799855-11.40162 19.031294-7.177089 6.169125-218.917361 5.859466-226.021955-.247345-7.128759-6.127581-3.06182-11.057008-10.988138-18.643244l-.413482-.388049c-8.083336-7.441553-8.137693-9.550162-8.204118-16.737203l-.015183-4.162446c-.092861-14.530648-.968124-67.286422-8.896287-116.047839-5.141545-31.622585-28.157072-98.49921-69.046582-200.629876-4.244768-8.463647-7.982442-17.217262-11.176628-26.223092-.951071-2.681493-7.273318-24.824332-7.855712-27.473543-3.525385-16.036383-5.381915-32.691089-5.381915-49.774553 0-128.87893 105.660799-233.355946 236-233.355946z" stroke-linecap="round" stroke-linejoin="round" stroke-width="20"/><path d="m289 404c52.36643 2.666667 115.955875 4 190.768334 4s138.556348-1.333333 191.231666-4" stroke-linejoin="round" stroke-width="20"/><g stroke-linecap="round"><path d="m378 774c34.469075 6.246912 137.114476 15.986789 198.294631 15.986789" stroke-width="15"/><path d="m382.8153 811.986789c39.054997 6.233529 134.431305 15.001664 192.479331 15.001664" stroke-width="15"/><path d="m480 27c130.339201 0 236 105.363139 236 235.335159 0 15.605383-1.523221 30.856001-4.429491 45.612076-.416371 2.114049-2.19999 8.88292-4.099949 15.802863l-.572227 2.076012c-1.910719 6.905121-3.812686 13.510941-4.454994 15.313713-3.398863 9.53962-7.397463 18.796104-11.950508 27.724197-40.418475 101.90845-63.178978 168.709537-68.288368 200.400884-7.828996 48.559896-8.780426 101.047885-8.892423 116.464208l-.019047 4.765643c-.065336 7.129179-.93519 15.971919-8.65597 23.401532l-.391776.370289c-4.448985 4.130492-5.372801 7.479682-6.292231 10.637836l-.173201.59006c-.786911 2.646489-1.727355 5.18324-4.936187 7.964812-.16728.145006-.445685.286462-.830035.424378l-.013593 5.116338c-6.895098 18.080277-10.342647 39.945129-10.342647 65.594557v58.523417c-35.314076 47.95416-65.909459 74.317717-91.786148 79.090671-1.58092.291601-5.440764.791355-9.871205.791355-3.585198 0-7.876035-.450957-9.024219-.642557-26.055281-4.347902-56.932992-30.761058-92.633134-79.239469v-58.523417c0-25.649428-3.447549-47.51428-10.342647-65.594557l-.405806-5.388177c-.355606-.131101-.614611-.265097-.772521-.401982-7.128759-6.179553-3.061821-11.150788-10.988138-18.801367l-.413482-.391341c-8.083337-7.504667-8.981321-16.523822-9.047746-23.77182l-.015183-4.19775c-.092861-14.65389-.968124-67.857113-8.896287-117.032101-5.141545-31.890793-28.157072-99.334633-69.046582-202.331522-4.244768-8.535432-7.982442-17.36329-11.176628-26.445504-.444657-1.264318-2.06338-6.818706-3.720665-12.648343l-.552298-1.947899c-1.697719-6.003495-3.302897-11.826524-3.582749-13.110318-3.525385-16.172396-5.381915-32.96836-5.381915-50.196717 0-129.97202 105.660799-235.335159 236-235.335159z" stroke-linejoin="round" stroke-width="40"/></g><path d="m585 851-11.087549 14.190599c-13.653644 27.804545-26.221163 41.85716-37.702557 42.157846-16.58599.43437-34.061189.651555-52.425597.651555-.783622 0-1.545234-.042834-2.284835-.126095-.737843.083223-1.499786.126095-2.283759.126095-18.364408 0-35.839607-.217185-52.425597-.651555-11.481394-.300686-24.048913-14.353301-37.702557-42.157846l-11.087549-14.190599c30.044014 1.804755 63.782582 2.707132 101.215703 2.707132.783973 0 1.545916.042872 2.285828.126207.737532-.083373 1.499144-.126207 2.282766-.126207 37.433121 0 71.171689-.902377 101.215703-2.707132z" fill="#000" stroke-width="2"/></g></svg>