<?xml version="1.0" encoding="UTF-8"?>
<svg width="960px" height="960px" viewBox="0 0 960 960" version="1.1" xmlns="http://www.w3.org/2000/svg" xmlns:xlink="http://www.w3.org/1999/xlink">
    <style type="text/css">
	#pair {
		animation: pair 10s infinite;
	}
	@keyframes pair {
		40%, 100% {
            fill: #FFF67A;
			
		}
		0% , 30% {
			fill: rgba(255,255,255,0);
		}
	}
</style>
    <title>com.eglo/drivers/light/ assets/pair</title>
    <g id="com.eglo/drivers/light" stroke="none" stroke-width="1" fill="none" fill-rule="evenodd">
        <path d="M480,27 C610.339201,27 716,132.363139 716,262.335159 C716,277.940542 714.476779,293.19116 711.570509,307.947235 C711.180161,309.929156 709.58813,316.002229 707.825133,322.455479 L707.589144,323.317839 C707.549674,323.461833 707.510142,323.605933 707.47056,323.750098 L706.898333,325.82611 C704.987614,332.731231 703.085647,339.337051 702.443339,341.139823 C699.044476,350.679443 695.045876,359.935927 690.492831,368.86402 C685.647496,381.080725 681.055924,392.792902 676.718103,404.000546 L671,404 C618.324682,406.666667 554.580793,408 479.768334,408 C404.955875,408 341.36643,406.666667 289,404 L282.703177,403.106983 C278.211098,391.504805 273.448124,379.36379 268.414255,366.68394 C264.169487,358.148508 260.431813,349.32065 257.237627,340.238436 C256.841302,339.111544 255.512272,334.57652 254.054556,329.47615 L253.840406,328.726048 C253.804593,328.600469 253.768726,328.474635 253.732818,328.348589 L253.516962,327.590093 L252.964664,325.642194 C251.266945,319.638699 249.661767,313.81567 249.381915,312.531876 C245.85653,296.35948 244,279.563516 244,262.335159 C244,132.363139 349.660799,27 480,27 Z" id="pair" fill="#FFF67A"></path>
        <path d="M480,27 C610.339201,27 716,131.477016 716,260.355946 C716,275.830085 714.476779,290.952443 711.570509,305.584416 C710.69613,309.986582 703.792186,334.743867 702.443339,338.497848 C699.044476,347.957238 695.045876,357.135873 690.492831,365.988879 C650.074356,467.04026 627.313853,533.279538 622.204463,564.704354 C614.375467,612.855852 613.424037,664.902407 613.31204,680.189077 L613.292993,684.914639 C613.227657,691.98386 611.514175,693.917539 603.793396,701.284668 L603.40162,701.651842 C594.920742,709.459372 599.249585,714.451697 592,720.683136 C584.822911,726.852261 373.082639,726.542602 365.978045,720.435791 C358.849286,714.30821 362.916225,709.378783 354.989907,701.792547 L354.576425,701.404498 C346.493089,693.962945 346.438732,691.854336 346.372307,684.667295 L346.357124,680.504849 C346.264263,665.974201 345.389,613.218427 337.460837,564.45701 C332.319292,532.834425 309.303765,465.9578 268.414255,363.827134 C264.169487,355.363487 260.431813,346.609872 257.237627,337.604042 C256.286556,334.922549 249.964309,312.77971 249.381915,310.130499 C245.85653,294.094116 244,277.43941 244,260.355946 C244,131.477016 349.660799,27 480,27 Z" id="Path" stroke="#000000" stroke-width="10" stroke-linecap="round" stroke-linejoin="round"></path>
        <path d="M378,774 C412.469075,780.246912 515.114476,789.986789 576.294631,789.986789" id="Path-2" stroke="#000000" stroke-width="15" stroke-linecap="round"></path>
        <path d="M382.8153,811.986789 C421.870297,818.220318 517.246605,826.988453 575.294631,826.988453" id="Path-2" stroke="#000000" stroke-width="15" stroke-linecap="round"></path>
        <path d="M480,27 C610.339201,27 716,132.363139 716,262.335159 C716,277.940542 714.476779,293.19116 711.570509,307.947235 C711.154138,310.061284 709.370519,316.830155 707.47056,323.750098 L706.898333,325.82611 C704.987614,332.731231 703.085647,339.337051 702.443339,341.139823 C699.044476,350.679443 695.045876,359.935927 690.492831,368.86402 C650.074356,470.77247 627.313853,537.573557 622.204463,569.264904 C614.375467,617.8248 613.424037,670.312789 613.31204,685.729112 L613.292993,690.494755 C613.227657,697.623934 612.357803,706.466674 604.637023,713.896287 L604.245247,714.266576 C599.796262,718.397068 598.872446,721.746258 597.953016,724.904412 L597.779815,725.494472 C596.992904,728.140961 596.05246,730.677712 592.843628,733.459284 C592.676348,733.60429 592.397943,733.745746 592.013593,733.883662 L592,739 C585.104902,757.080277 581.657353,778.945129 581.657353,804.594557 L581.657353,863.117974 C546.343277,911.072134 515.747894,937.435691 489.871205,942.208645 C488.290285,942.500246 484.430441,943 480,943 C476.414802,943 472.123965,942.549043 470.975781,942.357443 C444.9205,938.009541 414.042789,911.596385 378.342647,863.117974 L378.342647,804.594557 C378.342647,778.945129 374.895098,757.080277 368,739 L367.594194,733.611823 C367.238588,733.480722 366.979583,733.346726 366.821673,733.209841 C359.692914,727.030288 363.759852,722.059053 355.833535,714.408474 L355.420053,714.017133 C347.336716,706.512466 346.438732,697.493311 346.372307,690.245313 L346.357124,686.047563 C346.264263,671.393673 345.389,618.19045 337.460837,569.015462 C332.319292,537.124669 309.303765,469.680829 268.414255,366.68394 C264.169487,358.148508 260.431813,349.32065 257.237627,340.238436 C256.79297,338.974118 255.174247,333.41973 253.516962,327.590093 L252.964664,325.642194 C251.266945,319.638699 249.661767,313.81567 249.381915,312.531876 C245.85653,296.35948 244,279.563516 244,262.335159 C244,132.363139 349.660799,27 480,27 Z" id="Combined-Shape" stroke="#000000" stroke-width="20" stroke-linecap="round" stroke-linejoin="round"></path>
        <path d="M585,851 L573.912451,865.190599 C560.258807,892.995144 547.691288,907.047759 536.209894,907.348445 C519.623904,907.782815 502.148705,908 483.784297,908 C483.000675,908 482.239063,907.957166 481.499462,907.873905 C480.761619,907.957128 479.999676,908 479.215703,908 C460.851295,908 443.376096,907.782815 426.790106,907.348445 C415.308712,907.047759 402.741193,892.995144 389.087549,865.190599 L378,851 C408.044014,852.804755 441.782582,853.707132 479.215703,853.707132 C479.999676,853.707132 480.761619,853.750004 481.501531,853.833339 C482.239063,853.749966 483.000675,853.707132 483.784297,853.707132 C521.217418,853.707132 554.955986,852.804755 585,851 Z" id="Combined-Shape" stroke="#000000" stroke-width="2" fill="#000000"></path>
        <path d="M289,404 C341.36643,406.666667 404.955875,408 479.768334,408 C554.580793,408 618.324682,406.666667 671,404" id="Path-2" stroke="#000000" stroke-width="10" stroke-linecap="round" stroke-linejoin="round"></path>
    </g>
</svg>