<svg height="960" viewBox="0 0 960 960" width="960" xmlns="http://www.w3.org/2000/svg"><g fill="none" fill-rule="evenodd" stroke="#000" stroke-linejoin="round"><path d="m456.213941 30.8782807c30.551806.1420619 58.119095 1.5411606 82.724406 4.1568366 20.367382 2.1651616 41.709974 5.4595384 64.032165 9.8717251 30.019048 5.885388 56.575603 22.7414375 75.598647 45.8286272 19.021929 23.0858374 30.477829 52.3610254 30.477829 82.9426434v612.010046c0 30.81545-11.625986 60.281581-30.88273 83.429792-19.264786 23.157878-46.131794 39.95028-76.419521 45.554713-26.776789 5.002504-45.601115 8.285008-56.4706 9.849585l-.790597.112753c-2.198804.310563-4.047209.545457-5.545193.7047-9.687879 1.029874-36.366399 2.225401-80.03896 3.497574-31.137448.849266-58.760416-11.734364-78.601916-33.141145-19.494605-21.032519-31.489263-50.68612-31.489263-84.527764v-662.58953c0-33.276353 11.610076-62.556606 30.585948-83.5433464 19.316419-21.3633739 46.273401-34.2323457 76.819785-34.1572099z" stroke-linecap="round" stroke-width="20"/><path d="m455.648093 21.0000602c31.012701.1438597 58.976084 1.5649855 83.935119 4.2123423 20.690327 2.1945831 42.371616 5.5315308 65.048451 10.0036915 32.359574 6.3331256 61.017176 24.424105 81.531118 49.2651446 20.530019 24.8605084 32.837219 56.3995044 32.837219 89.3186684v612.010252c0 33.170237-12.489888 64.91467-33.273044 89.841994-20.779999 24.923537-49.781408 42.947557-82.441094 48.977425-33.527568 6.249575-54.764744 9.828607-63.70265 10.776634-.098017.010396-.197753.020811-.299208.031245l-.629356.06282c-10.508064 1.019136-37.189446 2.2091-80.050309 3.454842-3.518831.095793-6.960536.036336-10.358632-.171032-1.720488.172562-3.658098.242004-5.843317.181453-2.293216-.063543-5.625219-.341769-9.992278-.880497l-.907204-.113529c-7.458607-.946287-18.295361-2.638087-32.508509-5.087713-29.441303-5.074186-55.802368-11.794833-79.097913-20.107673l-.522486-.734128-.295855-.106264c-22.810368-8.363846-42.118546-23.712003-55.733174-43.909328l-.46721-.698379c-13.151451-19.808463-20.877761-44.248741-20.877761-71.253251v-633.157876c0-34.587269 12.664204-64.9966695 33.261053-86.8757511 13.878885-14.7428988 31.389791-25.6552216 51.261563-31.4256342 12.441304-4.3766192 25.7379-8.0755435 39.893225-11.0826819 17.063563-3.6249607 39.629396-7.1585767 67.70041-10.5645652 6.953408-1.3114624 14.146464-1.9863348 21.531842-1.9682094z" stroke-width="40"/><g stroke-linecap="round" stroke-width="20"><path d="m358.808208 142.687978 340.23878 26.873365"/><path d="m358.808208 372.446674 340.23878 8.578847"/><path d="m358.808208 690.580815 340.23878-16.752558"/><path d="m601.42841 378.232243v301.050657"/><path d="m483.313681 685.098591v-309.844516"/><path d="m358.808208 584.980458 340.23878-8.344138"/><path d="m483.313681 478.479055 118.114729.048486"/></g></g></svg>