<?xml version="1.0" encoding="UTF-8"?>
<svg width="960px" height="960px" version="1.1" viewBox="0 0 960 960" xmlns="http://www.w3.org/2000/svg" xmlns:cc="http://creativecommons.org/ns#" xmlns:dc="http://purl.org/dc/elements/1.1/" xmlns:rdf="http://www.w3.org/1999/02/22-rdf-syntax-ns#">
  <style type="text/css">
    #pair {
    animation: press 10s infinite;
    }

    @keyframes press {
    0%, 40%, 60%, 100% {
    fill: rgba(255,255,255,0);
    }
    10%, 30% {
    fill: #0078CC;
    }
    }
    #led {
    animation: blink 10s infinite;
    }

    @keyframes blink {
    0%, 50%, 70%, 100% {
    fill: rgba(255,255,255,0);
    }
    60% {
    fill: #0078CC;
    }
    }
  </style>
  <g id="com.eglo/drivers/remote" transform="matrix(1.181 0 0 1.1748 -416.39 -83.762)" fill="none" fill-rule="evenodd" stroke-width=".84899">
    <circle class="pair" cx="817.57" cy="141.67" r="19.889" fill="#0074cc" stroke-width=".77965"/>
    <g stroke="#000" stroke-linecap="round" stroke-linejoin="round">
      <path id="Rectangle" d="m660.67 94.825c40.536-4.7616 76.163-7.1424 106.88-7.1424 28.128 0 58.237 1.9963 90.326 5.989 36.047 4.4867 63.106 35.122 63.107 71.447v629.32c-1e-3 37.469-28.74 68.674-66.082 71.753-47.665 3.9302-76.783 5.8953-87.352 5.8953-11.071 0-45.674-2.1561-103.81-6.4682-37.595-2.7895-66.673-34.106-66.672-71.804v-627.48c1e-3 -36.514 27.335-67.246 63.6-71.506z" stroke-width="16.98"/>
      <circle id="oval" cx="817.57" cy="141.67" r="19.889" stroke-width="8.4899"/>
      <line x1="597.07" x2="920.98" y1="188.48" y2="188.48" stroke-width="8.4899"/>
    </g>
    <circle class="pair" cx="828.93" cy="285.16" r="12.786" fill="#0074cc" stroke-width=".77965"/>
    <g stroke="#000" stroke-linecap="round" stroke-linejoin="round" stroke-width="8.4899">
      <line x1="597.07" x2="920.98" y1="386.86" y2="386.86"/>
      <line x1="597.07" x2="920.98" y1="661.54" y2="661.54"/>
      <line x1="815.52" x2="815.52" y1="386.86" y2="661.54"/>
      <line x1="703.07" x2="703.07" y1="661.54" y2="386.86"/>
      <line x1="597.07" x2="920.98" y1="570.36" y2="570.36"/>
      <line x1="703.07" x2="815.52" y1="478.37" y2="478.37"/>
      <line x1="817.57" x2="818" y1="132.79" y2="151"/>
      <circle id="Oval" cx="828.93" cy="285.16" r="12.786"/>
    </g>
    <circle id="led" cx="759" cy="164" r="8" fill="#0074cc" stroke-width=".77965"/>
  </g>
</svg>
